<?xml version="1.0" standalone="no"?>
<!DOCTYPE svg PUBLIC "-//W3C//DTD SVG 20010904//EN"
 "http://www.w3.org/TR/2001/REC-SVG-20010904/DTD/svg10.dtd">
<svg version="1.0" xmlns="http://www.w3.org/2000/svg"
 width="3136.000000pt" height="3136.000000pt" viewBox="0 0 3136.000000 3136.000000"
 preserveAspectRatio="xMidYMid meet">
<metadata>
Created by potrace 1.14, written by Peter Selinger 2001-2017
</metadata>
<g transform="translate(0.000000,3136.000000) scale(0.100000,-0.100000)"
fill="#000000" stroke="none">
<path d="M5347 18334 c-1 -1 -31 -5 -67 -8 -79 -7 -138 -15 -235 -32 -66 -11
-198 -46 -267 -70 -40 -14 -77 -26 -83 -27 -5 -2 -39 -17 -75 -34 -109 -54
-170 -126 -170 -203 0 -25 12 -43 63 -90 111 -107 119 -115 135 -145 18 -34
19 -107 2 -150 -7 -17 -13 -37 -15 -45 -3 -13 -55 -183 -99 -325 -9 -27 -16
-52 -16 -55 0 -3 -17 -57 -36 -120 -20 -63 -37 -119 -38 -125 -3 -14 -46 -156
-53 -175 -8 -19 -7 -18 -17 -60 -5 -19 -11 -39 -14 -45 -4 -5 -7 -14 -9 -20
-1 -5 -13 -48 -28 -95 -14 -47 -28 -92 -30 -100 -2 -8 -25 -82 -50 -165 -50
-161 -85 -274 -89 -290 -2 -5 -6 -23 -11 -40 -4 -16 -10 -34 -14 -40 -3 -5 -6
-14 -7 -20 -2 -12 -46 -158 -70 -235 -10 -30 -19 -59 -20 -65 -1 -5 -15 -48
-29 -95 -15 -47 -28 -92 -29 -100 -1 -9 -5 -20 -8 -25 -5 -9 -84 -266 -93
-305 -2 -8 -4 -16 -5 -17 -2 -2 -3 -6 -4 -10 -2 -5 -8 -28 -15 -53 -7 -25 -13
-46 -12 -47 0 -2 -6 -18 -15 -38 -8 -19 -12 -35 -9 -35 3 0 -1 -13 -10 -30 -8
-16 -15 -32 -14 -35 0 -3 -9 -38 -21 -78 -45 -146 -107 -230 -219 -294 -104
-60 -142 -104 -147 -168 -5 -83 73 -133 221 -141 111 -7 272 -7 282 -1 5 3 15
2 22 -3 8 -4 27 -4 42 0 16 5 29 6 29 2 0 -4 34 -7 75 -7 41 0 75 3 75 6 0 4
18 3 40 -1 22 -4 40 -4 40 1 0 4 13 4 29 -1 15 -4 34 -4 41 0 7 5 23 5 34 0
12 -4 30 -4 41 0 11 4 27 4 35 0 8 -4 26 -4 40 0 14 3 44 3 68 0 23 -4 42 -3
42 2 0 5 4 7 10 3 12 -8 123 -10 135 -3 6 3 19 2 30 -2 11 -4 32 -4 48 1 15 4
27 5 27 1 0 -4 29 -7 65 -7 36 0 65 3 65 6 0 4 16 3 34 -1 19 -4 37 -6 40 -3
2 2 35 6 73 8 37 2 78 6 91 9 12 3 31 8 42 10 73 17 150 91 150 145 0 33 -16
56 -90 129 -82 80 -98 133 -75 262 3 19 7 45 9 57 2 12 8 28 12 35 5 7 9 18
10 23 1 6 27 91 58 190 32 99 59 191 62 204 3 14 8 29 12 35 3 6 7 16 8 21 1
6 18 64 39 130 20 66 61 199 91 295 94 302 154 435 234 518 39 41 133 95 185
107 117 27 210 -41 219 -158 2 -21 0 -40 -4 -42 -4 -3 -11 -22 -15 -42 -4 -21
-10 -42 -14 -48 -4 -5 -22 -50 -40 -100 -17 -49 -38 -103 -45 -120 -8 -16 -19
-46 -26 -65 -7 -19 -16 -44 -21 -55 -57 -132 -242 -645 -253 -705 -3 -14 -7
-36 -10 -49 -18 -82 -27 -267 -14 -286 3 -6 8 -24 11 -40 8 -55 19 -95 28
-101 5 -3 9 -12 9 -20 0 -23 65 -116 116 -168 82 -84 178 -138 314 -180 121
-36 163 -41 365 -40 211 1 256 6 388 45 82 25 228 89 247 109 3 3 25 18 50 34
102 64 238 238 255 325 2 12 7 26 11 33 14 22 12 182 -2 215 -23 54 -51 53
-103 -4 -25 -27 -57 -54 -71 -60 -38 -16 -101 -9 -117 12 -20 29 -16 98 12
184 14 43 27 87 30 97 2 11 17 60 33 109 27 83 73 230 109 350 8 28 19 61 23
75 10 29 72 230 76 245 1 6 10 33 19 60 30 93 67 220 71 245 3 14 7 32 11 40
8 21 12 60 17 183 8 228 -58 416 -200 563 -83 86 -188 154 -284 184 -25 7 -49
16 -55 19 -5 3 -17 7 -25 8 -150 24 -356 23 -475 -4 -11 -2 -31 -6 -45 -9 -47
-9 -175 -52 -234 -78 -130 -58 -300 -194 -429 -345 -20 -24 -39 -42 -41 -40
-3 4 36 138 51 179 3 8 7 20 9 25 9 32 47 155 79 255 20 63 38 124 40 134 3
11 15 54 29 95 42 133 90 286 92 296 1 6 9 39 19 75 20 79 25 230 9 285 -19
65 -47 128 -65 150 -43 49 -56 62 -95 93 -51 39 -119 69 -204 89 -36 8 -74 17
-85 20 -19 4 -343 11 -348 7z"/>
<path d="M19447 18334 c-1 -1 -40 -5 -87 -8 -91 -7 -156 -13 -205 -20 -16 -2
-50 -7 -74 -10 -23 -3 -47 -9 -53 -12 -5 -3 -22 -7 -36 -9 -28 -3 -61 -10 -92
-20 -10 -3 -27 -7 -37 -9 -75 -15 -333 -129 -333 -148 0 -4 -6 -8 -13 -8 -7 0
-22 -8 -33 -18 -10 -9 -32 -25 -48 -36 -67 -43 -216 -192 -216 -216 0 -5 -3
-10 -8 -10 -8 0 -10 -3 -64 -111 -31 -63 -48 -121 -74 -249 -5 -29 -5 -182 1
-225 10 -77 16 -112 24 -141 l9 -31 -137 -2 c-232 -3 -312 -20 -365 -75 -22
-23 -25 -30 -35 -86 -13 -76 -4 -98 71 -169 221 -209 241 -238 244 -363 2 -42
-4 -103 -12 -135 -8 -32 -16 -67 -19 -77 -5 -22 -34 -113 -42 -136 -3 -8 -8
-24 -10 -35 -2 -11 -7 -31 -12 -45 -6 -14 -22 -65 -36 -115 -15 -49 -29 -97
-32 -105 -3 -8 -7 -19 -9 -25 -36 -126 -48 -162 -55 -171 -5 -6 -6 -14 -3 -17
3 -3 2 -12 -2 -19 -5 -7 -9 -15 -10 -18 -2 -13 -26 -97 -31 -110 -3 -8 -7 -19
-8 -25 -2 -5 -11 -37 -21 -70 -10 -33 -19 -62 -19 -65 -1 -3 -5 -12 -8 -20 -3
-8 -17 -53 -31 -100 -13 -47 -36 -121 -49 -165 -14 -44 -32 -101 -40 -127 -8
-27 -13 -48 -11 -48 3 0 0 -9 -6 -21 -6 -11 -13 -30 -16 -42 -2 -12 -20 -54
-39 -94 -39 -79 -93 -133 -186 -188 -116 -68 -143 -112 -130 -207 2 -14 54
-60 80 -70 34 -13 54 -17 126 -24 33 -3 65 -7 72 -9 7 -2 15 0 18 4 3 5 20 5
39 1 19 -4 40 -4 47 1 7 4 17 5 22 2 5 -3 56 -5 113 -4 111 1 112 1 191 0 29
0 57 2 63 6 5 3 10 3 10 -2 0 -4 19 -7 42 -5 49 3 44 3 123 3 33 -1 67 -1 75
0 8 0 29 0 45 0 17 -1 38 -1 48 -1 9 0 64 0 121 -1 57 -1 108 1 113 4 5 3 15
2 22 -3 8 -4 27 -4 42 0 16 5 29 6 29 2 0 -4 16 -7 35 -7 19 0 35 3 35 7 0 4
13 3 29 -2 16 -4 31 -6 33 -4 3 2 42 6 89 9 46 2 91 6 99 8 8 2 31 7 50 11 78
19 150 89 150 147 0 31 -30 73 -92 128 -25 23 -54 58 -64 78 -17 37 -22 128
-11 183 12 57 20 86 30 98 5 6 7 12 4 12 -4 0 1 19 9 43 9 23 17 49 19 57 2 8
12 44 23 80 11 36 37 119 57 185 20 66 40 131 45 145 4 14 22 72 40 130 17 58
45 150 62 205 17 55 31 101 30 102 -1 2 6 22 14 45 9 24 17 50 19 58 4 14 87
286 142 465 14 44 31 100 38 125 7 25 21 70 31 100 l19 54 142 2 c78 1 154 5
170 9 15 4 43 9 62 11 111 14 221 113 254 229 35 125 -14 212 -135 241 -10 2
-28 6 -40 9 -13 3 -126 6 -253 6 -175 1 -239 5 -267 16 -37 15 -74 55 -96 106
-11 25 -28 150 -25 187 2 35 13 127 18 150 4 14 8 36 11 50 6 30 55 153 63
160 3 3 13 18 21 33 49 96 193 181 325 193 l65 6 -15 -28 c-17 -32 -38 -84
-40 -99 -1 -5 -5 -21 -9 -35 -23 -83 -10 -198 33 -284 29 -57 94 -135 137
-163 39 -26 130 -70 159 -78 17 -5 32 -9 35 -10 3 -1 34 -5 70 -10 204 -26
449 14 578 96 57 36 142 117 142 136 0 7 4 13 8 13 18 0 47 108 49 186 3 106
-22 193 -77 268 -43 59 -184 185 -207 186 -6 0 -13 3 -15 8 -5 11 -115 68
-178 91 -104 38 -257 74 -372 86 -24 3 -65 8 -93 11 -46 5 -492 13 -498 8z"/>
<path d="M30588 18335 c-2 -1 -43 -5 -93 -9 -95 -6 -154 -13 -195 -21 -14 -3
-36 -8 -50 -10 -26 -5 -108 -22 -150 -31 -91 -20 -296 -97 -311 -117 -3 -5 -8
-7 -10 -5 -8 7 -88 -58 -109 -89 -24 -36 -33 -97 -17 -128 5 -11 30 -38 55
-60 114 -101 137 -131 145 -189 4 -33 -18 -143 -40 -196 -3 -8 -7 -19 -8 -25
-2 -5 -17 -57 -35 -115 -17 -58 -43 -143 -56 -190 -14 -47 -27 -92 -30 -100
-3 -8 -5 -17 -6 -20 0 -3 -6 -21 -13 -40 -7 -19 -16 -44 -20 -55 -6 -17 -8
-18 -18 -5 -21 27 -150 102 -232 135 -52 22 -155 54 -155 49 0 -2 -11 1 -24 5
-41 16 -157 26 -306 26 -205 0 -271 -11 -450 -72 -212 -72 -467 -260 -626
-460 -21 -26 -43 -52 -49 -58 -32 -30 -171 -258 -217 -355 -36 -79 -101 -239
-99 -247 1 -2 -8 -27 -18 -55 -17 -46 -38 -117 -42 -140 0 -4 -7 -34 -15 -67
-7 -33 -16 -75 -19 -93 -3 -18 -8 -46 -11 -63 -26 -147 -36 -441 -20 -570 5
-33 9 -69 10 -80 1 -11 5 -26 9 -32 5 -7 6 -13 3 -13 -3 0 1 -18 9 -40 8 -22
14 -41 14 -43 -1 -5 14 -45 39 -107 53 -130 212 -333 305 -388 15 -9 27 -20
27 -24 0 -4 7 -8 15 -8 8 0 15 -4 15 -8 0 -13 156 -88 234 -113 147 -47 352
-57 501 -25 139 29 306 108 395 184 63 54 118 108 153 149 l34 42 26 -47 c29
-54 111 -140 171 -181 57 -39 156 -93 156 -85 0 4 6 2 13 -4 14 -12 128 -48
178 -56 19 -3 45 -8 59 -11 47 -10 267 -12 326 -3 102 15 206 45 279 79 39 18
72 33 75 34 10 2 95 60 98 68 2 4 8 7 13 7 29 0 187 167 224 237 11 21 22 40
26 43 3 3 13 24 22 47 42 107 35 257 -13 283 -26 14 -24 15 -85 -44 -31 -31
-68 -57 -85 -61 -48 -11 -89 3 -105 36 -17 32 -14 61 15 159 8 25 14 47 15 50
0 3 4 14 7 25 4 11 21 67 38 125 17 58 35 116 40 130 4 14 14 45 21 70 7 25
17 51 22 58 5 6 7 12 3 12 -3 0 -1 12 5 28 6 15 12 34 14 42 8 29 34 117 75
250 23 74 43 142 45 150 2 8 4 16 5 18 2 1 3 5 5 10 1 4 4 14 7 22 6 18 39
130 43 145 1 5 5 17 8 25 5 14 72 234 82 270 5 19 28 94 98 325 57 186 63 203
74 233 3 9 8 26 10 37 2 11 15 56 29 100 14 44 32 105 41 135 9 30 24 79 34
108 11 28 18 53 17 55 -1 1 13 47 30 103 94 298 102 444 33 586 -25 53 -90
124 -146 161 -43 28 -155 73 -201 81 -16 2 -29 5 -29 6 0 6 -330 21 -337 15z
m-1145 -1755 c87 -41 88 -21 -9 -336 -103 -335 -123 -398 -135 -444 -6 -19
-14 -44 -18 -55 -10 -23 -33 -101 -38 -129 -2 -11 -8 -25 -14 -33 -6 -7 -9
-13 -5 -13 3 0 1 -12 -5 -27 -6 -16 -12 -35 -14 -43 -2 -8 -35 -118 -75 -245
-110 -357 -157 -432 -272 -439 -65 -4 -105 11 -146 53 -50 53 -66 125 -66 291
1 127 8 265 14 265 2 0 4 9 5 20 7 54 18 113 41 208 2 9 6 27 9 38 2 12 12 47
21 78 9 31 16 57 16 58 0 1 15 45 33 97 46 131 109 273 156 350 21 36 39 70
39 75 0 6 4 11 8 11 4 0 16 14 25 30 27 45 124 146 164 171 87 54 178 60 266
19z"/>
<path d="M14978 17135 c-2 -2 -41 -6 -88 -9 -81 -5 -160 -21 -250 -50 -49 -16
-210 -98 -210 -107 0 -5 -5 -9 -11 -9 -32 0 -309 -260 -309 -290 0 -4 -9 -17
-20 -30 -11 -13 -20 -29 -20 -37 0 -7 -3 -13 -8 -13 -14 0 -115 -219 -121
-262 -1 -5 -1 -9 -2 -10 -5 -17 -10 -50 -12 -80 -2 -21 -6 -40 -9 -43 -8 -8
10 -86 24 -102 17 -20 34 -16 106 28 56 34 73 39 102 34 69 -13 97 -57 121
-190 5 -27 11 -66 14 -85 3 -19 7 -45 9 -56 2 -12 7 -39 11 -60 3 -22 8 -52
11 -69 6 -33 11 -62 18 -116 10 -70 56 -344 66 -394 5 -27 12 -70 15 -95 7
-53 12 -85 25 -160 5 -30 12 -71 15 -90 7 -42 13 -79 20 -122 3 -18 8 -44 10
-58 8 -48 26 -155 30 -175 18 -99 87 -280 127 -331 48 -63 132 -133 199 -165
62 -31 129 -58 162 -65 4 -1 8 -2 10 -3 1 -2 11 -4 22 -6 11 -2 37 -8 58 -12
l39 -8 -64 -53 c-34 -29 -70 -59 -78 -65 -32 -26 -142 -89 -206 -118 -121 -55
-333 -97 -335 -67 0 7 -2 20 -4 28 -2 8 -7 31 -11 50 -17 98 -77 242 -135 326
-80 117 -205 210 -321 240 -10 2 -28 7 -40 10 -50 12 -215 11 -268 -3 -222
-57 -358 -251 -357 -512 0 -52 3 -106 8 -120 26 -89 34 -112 57 -161 68 -147
198 -274 362 -355 30 -14 63 -31 72 -36 10 -5 27 -9 37 -9 11 0 22 -4 25 -9 3
-5 36 -14 73 -21 38 -7 77 -14 88 -17 46 -9 126 -15 210 -16 91 -1 283 11 295
18 3 2 26 6 50 10 70 9 83 11 107 19 20 6 32 9 86 21 83 18 356 121 369 140 4
5 8 7 8 2 0 -29 505 279 604 368 6 6 38 31 71 57 33 25 72 56 86 69 14 13 48
44 75 68 140 124 386 382 418 439 5 9 22 28 38 43 15 16 28 32 28 36 0 4 15
25 33 45 17 20 48 60 67 88 19 28 40 57 46 63 21 23 154 228 201 309 26 46 53
90 58 100 68 114 253 513 271 583 2 10 51 149 61 175 3 8 7 20 9 25 1 6 12 44
24 85 11 41 23 82 25 90 2 8 11 47 20 85 9 39 19 84 21 100 3 17 6 39 9 50 19
90 26 373 11 475 -12 87 -52 226 -66 235 -6 4 -10 12 -10 20 0 8 -11 31 -25
52 -14 21 -31 47 -38 57 -44 70 -183 175 -253 191 -10 2 -35 8 -54 13 -39 10
-154 8 -215 -3 -91 -16 -220 -96 -293 -181 -32 -38 -115 -180 -118 -204 0 -3
-9 -32 -19 -65 -11 -33 -20 -64 -21 -70 -1 -5 -3 -12 -4 -15 -4 -7 -8 -34 -17
-115 -14 -116 -6 -264 19 -360 5 -22 12 -47 13 -55 28 -129 141 -321 260 -444
l58 -59 -33 -81 c-76 -185 -220 -453 -251 -464 -5 -2 -9 -8 -9 -13 0 -16 -92
-104 -137 -133 -92 -57 -161 -20 -182 96 -6 35 -13 81 -16 103 -3 22 -7 51 -9
65 -2 14 -7 50 -10 80 -4 30 -9 69 -11 85 -3 17 -7 48 -10 70 -3 22 -8 56 -11
75 -3 19 -7 51 -9 70 -10 73 -26 196 -30 220 -2 14 -16 111 -30 215 -14 105
-28 208 -31 230 -3 22 -7 54 -9 70 -11 107 -33 211 -79 385 -10 39 -51 131
-81 186 -114 204 -280 306 -520 320 -38 2 -78 6 -87 8 -9 2 -18 3 -20 1z"/>
<path d="M2040 17120 c0 -3 -26 -6 -58 -7 -49 -2 -245 -32 -307 -47 -190 -47
-317 -94 -510 -187 -261 -127 -465 -283 -654 -500 -85 -98 -92 -108 -158 -208
-70 -106 -175 -313 -161 -317 2 0 -2 -7 -8 -15 -22 -28 -80 -226 -98 -339 -3
-19 -8 -44 -10 -56 -21 -103 -22 -353 -1 -464 19 -103 66 -253 86 -274 5 -6 9
-18 9 -28 0 -10 5 -18 10 -18 6 0 10 -5 10 -10 0 -23 104 -164 173 -233 201
-205 533 -339 922 -373 33 -3 78 -7 100 -9 83 -7 500 -3 500 5 0 1 14 3 30 5
47 4 117 14 150 21 17 4 39 8 50 9 11 2 20 4 20 5 0 1 10 3 23 6 46 8 168 43
227 64 33 12 65 23 70 24 47 14 259 116 340 164 63 37 186 124 247 173 59 49
220 207 263 260 66 80 95 120 95 129 0 5 5 10 10 10 6 0 10 6 10 14 0 8 4 16
9 18 7 3 121 193 121 202 0 3 15 37 34 78 44 95 110 291 123 363 1 11 7 40 13
65 31 146 42 330 27 465 -12 103 -18 139 -28 165 -5 14 -11 35 -13 46 -3 12
-19 57 -37 100 -91 219 -300 432 -524 534 -93 43 -102 47 -156 64 -47 15 -147
41 -189 50 -14 3 -36 7 -49 10 -35 8 -177 27 -241 33 -78 6 -470 10 -470 3z
m227 -515 c27 -6 66 -58 79 -105 14 -51 8 -232 -11 -300 -2 -8 -6 -31 -9 -50
-14 -89 -98 -419 -123 -480 -4 -8 -7 -17 -8 -20 -4 -14 -29 -96 -30 -100 -16
-59 -50 -158 -57 -167 -6 -7 -8 -13 -4 -13 3 0 0 -17 -8 -37 -8 -21 -26 -71
-40 -110 -57 -160 -80 -221 -108 -281 -15 -34 -28 -69 -28 -77 0 -8 -3 -15 -8
-15 -4 0 -17 -21 -30 -47 -46 -98 -89 -160 -147 -216 -94 -91 -241 -70 -270
38 -10 36 -15 216 -6 230 3 6 6 24 7 40 0 17 7 57 14 90 7 33 14 67 15 75 2 8
4 15 5 15 1 0 3 9 5 20 6 35 16 78 32 140 8 33 16 67 18 75 5 24 95 320 112
370 8 25 16 50 17 55 1 6 11 35 21 65 11 30 20 57 20 60 1 3 4 12 7 20 3 8 14
38 23 65 128 368 257 584 387 648 48 24 65 25 125 12z"/>
<path d="M9076 17122 c-2 -1 -25 -5 -52 -7 -64 -7 -125 -15 -144 -20 -8 -2
-33 -6 -55 -10 -67 -10 -314 -78 -340 -93 -5 -4 -15 -7 -22 -8 -19 -3 -151
-72 -173 -91 -46 -39 -72 -85 -77 -133 l-4 -48 95 -94 c94 -93 101 -106 109
-183 2 -23 -16 -115 -22 -115 -4 0 -8 -6 -8 -13 0 -11 -25 -96 -85 -287 -11
-36 -22 -72 -24 -80 -4 -17 -91 -298 -154 -495 -22 -71 -43 -139 -45 -150 -2
-11 -10 -40 -18 -65 -20 -60 -147 -471 -152 -490 -13 -52 -50 -152 -72 -190
-24 -42 -119 -140 -136 -140 -4 0 -13 -5 -20 -10 -7 -6 -34 -25 -61 -43 -83
-54 -108 -109 -81 -174 26 -62 77 -89 187 -98 29 -2 55 -5 58 -5 14 -4 122 0
130 5 6 4 10 3 10 -2 0 -4 18 -8 40 -8 22 0 40 4 40 8 0 5 5 5 11 2 10 -7 112
-10 134 -5 6 1 12 2 15 0 16 -6 80 -4 80 3 0 5 5 5 11 2 12 -8 123 -10 135 -3
5 3 18 2 29 -2 11 -4 32 -4 47 1 14 4 29 5 32 2 3 -3 54 -5 113 -4 60 1 115 1
123 1 8 0 38 0 67 -1 29 0 57 2 63 6 5 3 10 3 10 -2 0 -4 38 -8 85 -8 47 0 85
3 85 7 0 4 13 3 29 -2 16 -4 32 -6 34 -4 3 3 45 7 95 9 121 4 192 26 241 73
42 40 57 77 47 115 -3 13 -36 54 -73 93 -38 38 -76 84 -84 102 -22 45 -18 140
9 222 47 145 123 396 125 413 1 9 5 17 9 17 4 0 8 9 8 20 0 10 4 29 9 42 6 13
26 77 46 143 65 214 107 349 122 395 8 25 16 52 18 60 14 59 59 180 91 240 94
179 276 283 397 225 57 -27 90 -76 90 -133 0 -70 3 -60 -108 -347 -37 -93 -71
-186 -78 -205 -6 -19 -16 -38 -22 -42 -5 -4 -7 -8 -2 -8 4 0 0 -17 -9 -37 -8
-21 -27 -69 -41 -108 -14 -38 -31 -83 -38 -100 -7 -16 -23 -57 -35 -90 -12
-33 -28 -76 -35 -95 -12 -31 -27 -76 -30 -90 -1 -3 -4 -18 -8 -35 -4 -16 -9
-41 -12 -55 -3 -14 -7 -36 -10 -50 -3 -14 -8 -36 -10 -50 -13 -63 -5 -217 15
-287 75 -268 301 -431 665 -479 88 -11 335 -2 420 16 28 6 60 13 72 15 42 6
158 48 215 77 32 15 60 28 63 28 3 -1 12 5 20 12 33 30 45 38 54 38 24 0 180
168 214 230 62 111 85 250 57 336 -22 65 -63 66 -113 1 -48 -63 -134 -85 -177
-44 -24 22 -26 78 -5 145 8 26 30 99 50 162 20 63 38 122 40 130 6 24 126 413
132 430 3 8 7 20 8 25 0 6 6 23 13 38 7 16 12 32 12 36 0 25 64 210 91 265 39
78 59 105 131 178 137 139 306 146 375 15 24 -48 9 -133 -50 -277 -5 -14 -11
-29 -13 -35 -1 -5 -26 -68 -54 -140 -28 -71 -52 -134 -54 -140 -2 -5 -8 -23
-14 -38 -7 -16 -12 -31 -12 -34 0 -3 -6 -19 -14 -36 -15 -34 -118 -305 -132
-347 -4 -14 -7 -28 -6 -32 1 -5 -3 -8 -8 -8 -6 0 -10 -8 -10 -17 0 -10 -7 -37
-15 -60 -8 -22 -16 -52 -19 -65 -3 -12 -8 -34 -11 -48 -23 -97 -26 -290 -5
-370 42 -169 180 -324 362 -408 203 -93 550 -110 833 -39 257 64 485 245 566
449 51 127 42 292 -16 314 -17 7 -57 -22 -81 -58 -36 -52 -133 -73 -170 -36
-18 18 -25 82 -12 122 5 17 11 38 13 46 2 8 10 34 19 58 8 23 15 45 15 47 0 5
57 190 107 346 8 25 16 54 18 65 2 10 13 43 25 72 11 28 19 52 16 52 -2 0 0
12 6 28 6 15 19 54 29 87 10 33 36 119 58 190 75 242 92 310 99 390 24 290
-40 494 -211 665 -38 39 -73 70 -77 70 -4 0 -14 6 -21 13 -29 30 -155 86 -233
106 -127 32 -337 34 -485 6 -14 -3 -34 -7 -45 -9 -11 -2 -33 -9 -50 -16 -16
-6 -30 -10 -30 -9 0 5 -84 -25 -140 -51 -33 -15 -67 -30 -75 -34 -8 -3 -33
-17 -55 -31 -22 -13 -48 -27 -57 -31 -10 -3 -18 -10 -18 -14 0 -4 -18 -19 -40
-34 -46 -30 -165 -148 -225 -221 -62 -76 -145 -193 -145 -205 0 -18 -20 -11
-20 8 -2 84 -45 221 -98 310 -64 107 -171 209 -283 269 -48 26 -125 57 -139
56 -3 0 -14 3 -26 7 -74 29 -351 31 -479 5 -103 -21 -223 -60 -313 -101 -130
-61 -331 -233 -442 -381 -30 -40 -55 -71 -56 -70 -1 1 -4 27 -5 57 -8 162 -81
304 -207 402 -53 42 -166 89 -252 105 -28 5 -330 10 -334 5z"/>
<path d="M21767 17123 c-2 -1 -32 -5 -68 -7 -58 -5 -96 -9 -169 -21 -23 -4
-82 -16 -150 -31 -86 -18 -326 -94 -353 -111 -7 -4 -14 -8 -17 -9 -29 -5 -221
-102 -305 -152 -92 -56 -213 -143 -280 -202 -48 -43 -204 -199 -225 -226 -8
-10 -38 -48 -65 -84 -28 -36 -52 -67 -55 -70 -5 -5 -12 -17 -62 -100 -65 -111
-144 -282 -157 -342 -1 -4 -8 -23 -17 -43 -8 -19 -14 -37 -14 -40 0 -3 0 -6
-1 -7 -8 -27 -29 -117 -34 -148 -3 -19 -8 -46 -10 -60 -12 -58 -17 -123 -19
-255 -2 -121 3 -175 27 -305 3 -14 17 -60 31 -103 102 -304 328 -527 663 -653
67 -25 185 -59 243 -69 18 -3 36 -7 39 -9 3 -2 31 -7 61 -11 30 -3 62 -8 70
-10 14 -4 78 -10 215 -21 64 -5 324 -4 390 0 85 7 169 16 195 22 14 3 36 7 50
8 80 8 283 63 415 113 99 37 278 123 283 135 2 4 9 8 15 8 12 0 140 81 145 92
2 5 10 8 17 8 7 0 15 3 17 8 2 4 32 29 68 57 36 27 71 55 78 62 7 7 18 13 23
13 5 0 9 7 9 15 0 8 4 15 9 15 8 0 103 92 156 151 24 27 110 140 162 215 14
19 53 88 76 134 12 25 24 47 27 50 3 3 18 34 34 70 15 36 34 79 41 95 12 28
37 100 41 118 1 4 3 9 4 12 1 3 4 10 5 15 1 6 3 11 4 13 2 1 4 13 7 27 2 14 9
36 14 50 10 26 17 59 25 119 3 18 7 36 10 40 18 30 27 369 12 466 -12 76 -14
85 -35 155 -18 61 -76 191 -104 235 -80 123 -186 234 -296 313 -51 36 -214
122 -232 122 -9 0 -20 4 -25 9 -18 17 -220 73 -313 87 -20 3 -44 7 -52 9 -8 3
-40 7 -70 10 -30 2 -82 8 -115 11 -60 7 -433 13 -438 7z m230 -536 c42 -28 58
-82 58 -192 0 -118 -13 -217 -42 -330 -8 -33 -17 -71 -19 -85 -10 -56 -167
-578 -202 -670 -3 -8 -6 -18 -6 -22 -1 -3 -4 -10 -8 -14 -5 -4 -8 -14 -8 -21
0 -13 -33 -106 -60 -168 -5 -11 -21 -51 -36 -90 -87 -228 -188 -386 -284 -444
-68 -41 -174 -20 -205 40 -27 51 -38 163 -24 244 4 22 9 60 12 85 7 56 33 179
52 245 7 28 16 63 19 80 3 16 12 52 20 80 8 27 25 84 36 125 12 41 24 82 27
90 8 19 7 16 22 70 74 266 242 689 318 801 48 70 60 86 85 110 97 97 171 117
245 66z"/>
<path d="M25536 17123 c-1 -1 -27 -5 -57 -8 -30 -3 -76 -8 -104 -11 -71 -8
-286 -54 -307 -65 -10 -5 -18 -8 -18 -5 0 3 -44 -10 -97 -29 -139 -47 -203
-74 -338 -142 -97 -49 -218 -122 -223 -135 -2 -4 -8 -8 -13 -8 -30 0 -320
-258 -404 -361 -71 -85 -155 -204 -155 -218 0 -5 -4 -11 -8 -13 -24 -9 -193
-382 -202 -443 0 -3 -2 -10 -4 -17 -9 -29 -26 -108 -31 -145 -3 -21 -8 -44
-10 -50 -18 -54 -25 -348 -11 -455 39 -306 207 -574 466 -743 70 -46 190 -104
255 -124 22 -7 47 -15 55 -18 27 -10 132 -39 170 -47 14 -3 34 -7 45 -9 35 -8
109 -20 140 -23 17 -2 57 -6 90 -9 33 -3 78 -8 100 -10 48 -5 364 -5 420 -1
127 11 194 21 316 46 74 16 146 33 160 38 13 5 27 10 32 11 13 2 27 6 47 13 8
3 38 14 65 24 28 9 69 25 93 35 23 10 44 19 47 19 5 1 183 93 217 113 12 6 31
20 42 30 11 9 23 17 28 17 7 0 84 52 132 90 117 92 254 225 338 330 55 68 142
196 159 233 7 15 16 27 21 27 5 0 7 4 3 9 -3 5 -1 12 5 16 5 3 19 27 31 53 11
26 29 65 39 87 39 89 49 113 73 190 53 162 87 341 90 468 1 42 6 77 10 77 5 0
6 4 2 9 -3 5 -7 49 -10 98 -7 147 -38 270 -103 403 -36 75 -98 172 -114 178
-4 2 -8 7 -8 12 0 18 -181 190 -200 190 -5 0 -10 4 -10 8 0 8 -61 46 -152 96
-27 14 -48 23 -48 20 0 -4 -6 -2 -13 4 -17 15 -218 81 -265 88 -20 3 -45 7
-54 10 -28 8 -61 14 -105 18 -24 3 -46 7 -50 9 -20 13 -565 31 -577 20z m225
-524 c33 -17 56 -49 67 -91 10 -37 9 -233 -1 -274 -3 -12 -8 -37 -11 -55 -5
-30 -28 -141 -41 -194 -3 -11 -7 -29 -10 -40 -2 -11 -16 -60 -30 -110 -15 -49
-27 -94 -29 -100 -5 -23 -52 -170 -99 -315 -28 -85 -52 -157 -52 -160 -1 -3
-4 -12 -7 -20 -4 -8 -30 -78 -59 -155 -120 -321 -229 -497 -336 -541 -70 -30
-160 -8 -187 45 -35 67 -37 140 -11 356 5 38 46 214 75 320 12 44 23 85 24 90
80 307 242 767 337 955 117 231 264 346 370 289z"/>
</g>
</svg>
